# xmcd
#
# Track frame offsets:
#	187
#	14137
#	25837
#	36430
#	51337
#	63565
#	73787
#	87450
#	99480
#	110092
#	121827
#	131212
#	141757
#	155010
#	168515
#	181542
#	196355
#	208615
#	221462
#	231180
#	240610
#	254402
#	267845
#	278925
#	297490
#	308942
#	320490
#
# Disc length: 4516 seconds
#
# Revision: 0
# Processed by: cddbd v1.5.2PL0 Copyright (c) Steve Scherf et al.
# Submitted via: EZCDAudioConverter 2.1.3.1
#
DISCID=a811a21b
DTITLE=BILL MONROE and VA - BEAN BLOSSOM FESTIVAL
DYEAR=1973
DGENRE=BLUEGRASS
TTITLE0=BILL MONROE - MULE SKINNER BLUES
TTITLE1=BILL MONROE - YOU WON'T BE SATISFIED THAT WAY
TTITLE2=BILL MONROE - UNCLE PEN
TTITLE3=BILL MONROE - BLUE MOON OF KENTUCKY
TTITLE4=JIM and JESEE and VIRGINIA BOYS - OLE SLEW FOOT
TTITLE5=JIM and JESEE and VIRGINIA BOYS - SWEET LITTLE MISS BLUE EYES
TTITLE6=JIM and JESEE and VIRGINIA BOYS - PLEASE BE MY LOVE
TTITLE7=JIM and JESEE and VIRGINIA BOYS - I WISH YOU KNEW
TTITLE8=JAMES MONROE - LOVE PLEASE COME HOME
TTITLE9=JAMES MONROE - TRAIN 45 (HEADING SOUTH)
TTITLE10=JAMES MONROE - BONNY
TTITLE11=JAMES MONROE - WHEN MY BLUE MOON TURNS TO GOLD AGAIN
TTITLE12=JIMMY MARTIN and SUNNY MOUNTAIN BOYS - HIT PARADE OF LOVE
TTITLE13=JIMMY MARTIN and SUNNY MOUNTAIN BOYS - MARY ANN
TTITLE14=JIMMY MARTIN and SUNNY MOUNTAIN BOYS - SUNNY SIDE OF THE MOUNTAIN
TTITLE15=JIMMY MARTIN and SUNNY MOUNTAIN BOYS - FREE FORM MAN
TTITLE16=JIMMY MARTIN and SUNNY MOUNTAIN BOYS - TENNESSEE
TTITLE17=LESTER FLATT and NASHVILLE GRASS  - ROLL IN MY SWEET BABY'S ARMS
TTITLE18=LESTER FLATT and NASHVILLE GRASS  - FEUDIN' BANJOS
TTITLE19=LESTER FLATT and NASHVILLE GRASS  - THE BALLAD OF JED CLAMPETT
TTITLE20=BILL MONROE and BLUEGRASS BOYS - ROLL ON BUDDY, ROLL ON
TTITLE21=JIM and JESSE and VIRGINIA BOYS - I WONDER WHERE YOU ARE TONIGHT
TTITLE22=JIM and JESSE and VIRGINIA BOYS - ORANGE BLOSSOM SPECIAL
TTITLE23=JIM and JESSE and VIRGINIA BOYS - FIDDLER ROLL CALL-DOWN YONDER
TTITLE24=JIM and JESSE and VIRGINIA BOYS - SOLDIER'S JOY
TTITLE25=JIM and JESSE and VIRGINIA BOYS - GREY EAGLE
TTITLE26=JIM and JESSE and VIRGINIA BOYS - SWING LOW, SWEET CHARIOT
EXTD=
EXTT0=
EXTT1=
EXTT2=
EXTT3=
EXTT4=
EXTT5=
EXTT6=
EXTT7=
EXTT8=
EXTT9=
EXTT10=
EXTT11=
EXTT12=
EXTT13=
EXTT14=
EXTT15=
EXTT16=
EXTT17=
EXTT18=
EXTT19=
EXTT20=
EXTT21=
EXTT22=
EXTT23=
EXTT24=
EXTT25=
EXTT26=
PLAYORDER=
